<svg height="512pt" viewBox="0 0 512.00049 512" width="512pt" xmlns="http://www.w3.org/2000/svg"><path d="m437.019531 74.980469c-48.355469-48.351563-112.644531-74.980469-181.023437-74.980469-68.382813 0-132.667969 26.628906-181.023438 74.980469-42.667968 42.667969-68.96875 99.230469-74.058594 159.265625-4.863281 57.394531 9.777344 114.917968 41.292969 162.660156l-7.550781 63.777344c-.542969 4.5625 1.039062 9.121094 4.289062 12.371094s7.804688 4.835937 12.371094 4.289062l63.777344-7.554688c41.742188 27.554688 90.949219 42.210938 141.019531 42.210938 7.199219 0 14.425781-.304688 21.640625-.917969 60.035156-5.089843 116.597656-31.390625 159.265625-74.058593 48.351563-48.351563 74.980469-112.640626 74.980469-181.023438 0-68.378906-26.628906-132.664062-74.980469-181.019531zm0 0" fill="#00cbd4"/><path d="m437.019531 74.980469c-48.355469-48.351563-112.644531-74.980469-181.023437-74.980469l.113281 512c7.203125 0 14.429687-.304688 21.644531-.914062 60.035156-5.089844 116.597656-31.394532 159.265625-74.058594 48.351563-48.355469 74.980469-112.644532 74.980469-181.023438 0-68.382812-26.628906-132.667968-74.980469-181.023437zm0 0" fill="#0097b5"/><path d="m126.550781 136.894531c-31.292969 31.296875-31.292969 82.03125 0 113.328125l135.226563 135.222656c31.296875 31.296876 82.03125 31.296876 113.328125 0l23.199219-23.199218c5.859374-5.859375 5.859374-15.355469 0-21.214844l-45.972657-45.976562c-5.859375-5.855469-15.355469-5.855469-21.214843 0l-7.355469 7.359374c-13.566407 13.5625-35.605469 14.5-49.703125 1.484376l-65.957032-65.957032c-13.015624-14.09375-12.078124-36.136718 1.488282-49.703125l7.355468-7.355469c5.855469-5.859374 5.855469-15.355468 0-21.214843l-45.976562-45.972657c-5.859375-5.859374-15.355469-5.859374-21.210938 0zm0 0" fill="#f3f5fa"/><path d="m256.082031 379.75 5.695313 5.695312c31.296875 31.296876 82.03125 31.296876 113.328125 0l23.199219-23.203124c5.859374-5.855469 5.859374-15.355469 0-21.210938l-45.972657-45.976562c-5.859375-5.859376-15.355469-5.859376-21.214843 0l-7.355469 7.355468c-13.566407 13.566406-35.605469 14.503906-49.703125 1.488282l-18-18zm0 0" fill="#c7d3ed"/></svg>