<?xml version="1.0" encoding="iso-8859-1"?>
<!-- Generator: Adobe Illustrator 19.0.0, SVG Export Plug-In . SVG Version: 6.00 Build 0)  -->
<svg version="1.1" id="Capa_1" xmlns="http://www.w3.org/2000/svg" xmlns:xlink="http://www.w3.org/1999/xlink" x="0px" y="0px"
	 viewBox="0 0 512.001 512.001" style="enable-background:new 0 0 512.001 512.001;" xml:space="preserve">
<path style="fill:#46738C;" d="M244.153,192.247V43.069c0-8.893,7.209-16.102,16.102-16.102h212.539
	c8.893,0,16.102,7.209,16.102,16.102v149.178c0,8.893-7.209,16.102-16.102,16.102H260.256
	C251.362,208.349,244.153,201.14,244.153,192.247z"/>
<path style="fill:#FF8C46;" d="M256.591,154.414c-2.366,0-4.708-1.044-6.286-3.046c-2.734-3.469-2.14-8.498,1.329-11.233
	l65.56-51.694c3.47-2.735,8.499-2.14,11.233,1.329c2.734,3.469,2.14,8.498-1.329,11.233l-65.56,51.694
	C260.069,153.852,258.324,154.414,256.591,154.414z"/>
<circle style="fill:#FFB69E;" cx="128.289" cy="36.342" r="34.838"/>
<path style="fill:#343E6B;" d="M152.44,426.88c-11.198,0-20.275-9.078-20.275-20.275V244.544c0-11.198,9.078-20.275,20.275-20.275
	s20.275,9.078,20.275,20.275v162.061C172.716,417.802,163.638,426.88,152.44,426.88z"/>
<path style="fill:#414B82;" d="M103.496,426.88c-11.198,0-20.275-9.078-20.275-20.275V244.544c0-11.198,9.078-20.275,20.275-20.275
	s20.275,9.078,20.275,20.275v162.061C123.772,417.802,114.694,426.88,103.496,426.88z"/>
<path style="fill:#252D5C;" d="M270.633,137.566c-4.897-7.887-15.259-10.311-23.147-5.415l-34.045,21.138v-31.431
	c-0.109-21.824-18.112-39.58-39.937-39.58h-0.622c-10.746,0-79.151,0-90.268,0c-22.28,0-40.497,17.847-40.607,39.783
	c0,0.028,0,0.057,0,0.085v124.128c0,9.331,7.565,16.896,16.896,16.896s16.896-7.565,16.896-16.896V122.203
	c0.036-3.213,3.275-6.132,6.815-6.132h0.608v128.474h89.495c0-11.978,0-115.178,0-128.646c0.09,0,0.878,0,0.788,0
	c3.38,0,6.453,2.75,6.47,6.13v61.475c0.066,13.163,14.554,21.102,25.676,14.197l59.571-36.986
	C273.106,155.816,275.529,145.453,270.633,137.566z"/>
<path style="fill:#1B224A;" d="M270.633,137.566c-4.897-7.887-15.259-10.311-23.147-5.415l-34.045,21.138v-31.431
	c-0.109-21.824-18.112-39.58-39.937-39.58c-5.771,0-39.991,0-45.541,0v162.265h44.753c0-11.978,0-115.178,0-128.646
	c0.09,0,0.878,0,0.788,0c3.38,0,6.453,2.75,6.47,6.13v61.475c0.066,13.163,14.554,21.102,25.676,14.197l59.571-36.986
	C273.106,155.816,275.529,145.453,270.633,137.566z"/>
<path style="fill:#FFB69E;" d="M270.633,137.566c-4.897-7.887-15.259-10.311-23.147-5.415l17.733,28.562
	C273.106,155.816,275.529,145.453,270.633,137.566z"/>
<g>
	
		<rect x="236.55" y="144.676" transform="matrix(-0.5226 -0.8526 0.8526 -0.5226 259.3598 441.7484)" style="fill:#FFFFFF;" width="33.619" height="7.166"/>
	<path style="fill:#FFFFFF;" d="M42.001,237.56v8.715c0,9.331,7.565,16.896,16.896,16.896s16.896-7.565,16.896-16.896v-8.715
		L42.001,237.56L42.001,237.56z"/>
</g>
<path style="fill:#FFB69E;" d="M42.001,245.84v0.435c0,9.331,7.565,16.896,16.896,16.896s16.896-7.565,16.896-16.896v-0.435
	L42.001,245.84L42.001,245.84z"/>
<polygon style="fill:#FFFFFF;" points="102.183,82.278 127.963,149.934 153.75,82.278 "/>
<path style="fill:#FF3C3C;" d="M139.176,105.31l-5.727-10.416l4.936-8.977c0.898-1.633-0.285-3.637-2.151-3.637h-16.547
	c-1.864,0-3.05,2.002-2.151,3.637l4.953,9.007l-5.711,10.388c-0.791,1.439-1.048,3.109-0.726,4.719l3.523,17.884l8.388,22.021
	l8.396-22.024l3.543-17.879C140.225,108.421,139.967,106.749,139.176,105.31z"/>
<rect x="140.443" y="134.262" style="fill:#252D5C;" width="22.319" height="6.883"/>
<g>
	<circle style="fill:#80391B;" cx="429.114" cy="328.099" r="33.992"/>
	<path style="fill:#80391B;" d="M472.996,372.929c-9.989,0-78.063,0-88.05,0c-21.294,0-38.897,17.324-39.004,38.618v38.035h32.803
		v-37.871c0.016-3.298,2.903-5.981,6.201-5.981h0.323v43.851h86.874v-43.851h0.854c3.298,0,6.184,2.683,6.201,5.981v37.871H512
		v-38.035C511.893,390.254,494.292,372.929,472.996,372.929z"/>
</g>
<path style="fill:#55C7A6;" d="M472.996,372.929H446.11c-10.47,8.301-24.214,7.978-33.761,0h-27.402
	c-21.294,0-38.897,17.324-39.004,38.618v23.873h32.803v-23.708c0.016-3.298,2.903-5.981,6.201-5.981h0.323v43.851h86.874v-43.851
	h0.854c3.298,0,6.184,2.683,6.201,5.981v23.708h32.803v-23.873C511.893,390.254,494.292,372.929,472.996,372.929z"/>
<g>
	<circle style="fill:#FFB69E;" cx="256.158" cy="328.099" r="33.992"/>
	<path style="fill:#FFB69E;" d="M300.039,372.929c-9.989,0-78.063,0-88.05,0c-21.294,0-38.897,17.324-39.004,38.618v38.035h32.803
		v-37.871c0.016-3.298,2.903-5.981,6.201-5.981h0.323v43.851h86.874v-43.851h0.854c3.298,0,6.184,2.683,6.201,5.981v37.871h32.803
		v-38.035C338.937,390.254,321.334,372.929,300.039,372.929z"/>
</g>
<path style="fill:#252D5C;" d="M300.039,372.929h-28.227c-10.47,8.301-24.214,7.978-33.761,0H211.99
	c-21.294,0-38.897,17.324-39.004,38.618v23.873h32.803v-23.708c0.016-3.298,2.903-5.981,6.201-5.981h0.323v43.851h86.874v-43.851
	h0.854c3.298,0,6.184,2.683,6.201,5.981v23.708h32.803v-23.873C338.937,390.254,321.334,372.929,300.039,372.929z"/>
<g>
	<circle style="fill:#FFB69E;" cx="83.162" cy="327.558" r="33.992"/>
	<path style="fill:#FFB69E;" d="M127.054,372.387c-9.989,0-78.063,0-88.05,0c-21.294,0-38.897,17.324-39.004,38.618v38.036h32.803
		v-37.871c0.016-3.298,2.903-5.981,6.201-5.981h0.323v43.851H126.2v-43.852h0.854c3.298,0,6.184,2.683,6.201,5.981v37.871h32.803
		v-38.036C165.951,389.711,148.348,372.387,127.054,372.387z"/>
</g>
<path style="fill:#78BEFF;" d="M127.054,372.387H98.826c-10.47,8.301-24.214,7.978-33.761,0H39.004
	c-21.294,0-38.897,17.324-39.004,38.618v23.873h32.803v-23.708c0.016-3.298,2.903-5.981,6.201-5.981h0.323v43.851H126.2v-43.852
	h0.854c3.298,0,6.184,2.683,6.201,5.981v23.708h32.803v-23.873C165.951,389.711,148.348,372.387,127.054,372.387z"/>
<g>
	<circle style="fill:#FFB69E;" cx="352.265" cy="389.017" r="33.992"/>
	<path style="fill:#FFB69E;" d="M396.153,433.843c-9.989,0-78.063,0-88.05,0c-21.294,0-38.897,17.324-39.004,38.618v38.035h32.803
		v-37.871c0.016-3.298,2.903-5.981,6.201-5.981h0.323v43.851h86.874v-43.851h0.854c3.298,0,6.184,2.683,6.201,5.981v37.871h32.803
		v-38.035C435.049,451.166,417.447,433.843,396.153,433.843z"/>
</g>
<path style="fill:#78BEFF;" d="M396.153,433.843h-26.886c-10.47,8.301-24.214,7.978-33.761,0h-27.402
	c-21.294,0-38.897,17.324-39.004,38.618v23.873h32.803v-23.708c0.016-3.298,2.903-5.981,6.201-5.981h0.323v43.851H395.3v-43.851
	h0.854c3.298,0,6.184,2.683,6.201,5.981v23.708h32.803v-23.873C435.049,451.166,417.447,433.843,396.153,433.843z"/>
<g>
	<circle style="fill:#BA6746;" cx="179.308" cy="389.017" r="33.992"/>
	<path style="fill:#BA6746;" d="M223.196,433.843c-9.989,0-78.063,0-88.05,0c-21.294,0-38.897,17.324-39.004,38.618v38.035h32.803
		v-37.871c0.016-3.298,2.903-5.981,6.201-5.981h0.323v43.851h86.874v-43.851h0.854c3.298,0,6.184,2.683,6.201,5.981v37.871H262.2
		v-38.035C262.092,451.166,244.491,433.843,223.196,433.843z"/>
</g>
<path style="fill:#FF3C3C;" d="M223.196,433.843h-28.227c-10.47,8.301-24.214,7.978-33.761,0h-26.062
	c-21.294,0-38.897,17.324-39.004,38.618v23.873h32.803v-23.708c0.016-3.298,2.903-5.981,6.201-5.981h0.323v43.851h86.874v-43.851
	h0.854c3.298,0,6.184,2.683,6.201,5.981v23.708h32.803v-23.873C262.092,451.166,244.491,433.843,223.196,433.843z"/>
<g>
</g>
<g>
</g>
<g>
</g>
<g>
</g>
<g>
</g>
<g>
</g>
<g>
</g>
<g>
</g>
<g>
</g>
<g>
</g>
<g>
</g>
<g>
</g>
<g>
</g>
<g>
</g>
<g>
</g>
</svg>
